<svg xmlns="http://www.w3.org/2000/svg" viewBox="0 0 321.95 321.95" enable-background="new 0 0 321.95 321.95">
  <path
    d="M97.675 111.878v98.1c0 10.5 11 17.3 20.5 12.6l97.7-48.8c10.5-5.2 10.5-19.9 0-25.2l-97.7-48.8c-2.1-1-4.7-1.5-6.8-1.5-7.9 0-13.7 6.3-13.7 13.6zm27.8 23.1l53.1 26.2-53.1 26.2v-52.4zM14.175 76.778h293.6c18.9.5 18.9-28.3 0-27.8h-293.6c-18.9-.5-18.9 28.3 0 27.8zM307.775 244.678h-293.6c-18.9 0-18.9 28.3 0 28.3h293.6c18.9 0 18.9-28.3 0-28.3zM14.175 126.078h48.9c18.9 0 18.9-28.3 0-28.3h-48.9c-18.9 0-18.9 28.3 0 28.3zM14.175 174.878h48.9c18.9.5 18.9-28.3 0-27.8h-48.9c-18.9-.5-18.9 28.3 0 27.8zM14.175 223.678h48.9c18.9.5 18.9-28.3 0-27.8h-48.9c-18.9-.5-18.9 28.3 0 27.8zM307.775 97.778h-90.3c-18.9 0-18.9 28.3 0 28.3h90.3c18.9 0 18.9-28.3 0-28.3zM307.775 147.078h-48.3c-18.9-.5-18.9 28.3 0 27.8h48.3c18.9.5 18.9-28.3 0-27.8zM307.775 195.878h-48.3c-18.9-.5-18.9 28.3 0 27.8h48.3c18.9.5 18.9-28.3 0-27.8z" />
  </svg>