<svg xmlns="http://www.w3.org/2000/svg" viewBox="0 0 512 512" enable-background="new 0 0 512 512">
  <path
    d="M48 64h160c17.672 0 32-14.328 32-32 0-17.674-14.328-32-32-32h-160c-17.672 0-32 14.326-32 32 0 17.672 14.328 32 32 32zM48 160h160c17.672 0 32-14.328 32-32 0-17.674-14.328-32-32-32h-160c-17.672 0-32 14.326-32 32 0 17.672 14.328 32 32 32zM240 224c0-17.674-14.328-32-32-32h-160c-17.672 0-32 14.326-32 32 0 17.672 14.328 32 32 32h160c17.672 0 32-14.328 32-32zM411.328 75.914c-18.285-14.109-43.328-33.437-43.328-43.914 0-17.672-14.328-32-32-32s-32 14.328-32 32v293.58c-10.023-3.549-20.762-5.58-32-5.58-53.02 0-96 42.98-96 96s42.98 96 96 96 96-42.98 96-96v-292.707l4.23 3.293c36.105 27.852 59.77 48.078 59.77 74.305 0 40.766-21.684 63.516-22.305 64.164-12.672 12.32-12.961 32.578-.641 45.25 6.273 6.453 14.605 9.695 22.949 9.695 8.035 0 16.082-3.008 22.301-9.055 4.27-4.148 41.695-42.484 41.695-110.055.001-59.64-46.948-95.867-84.671-124.976z" />
  </svg>